<svg width="57" height="61" viewBox="0 0 57 61" fill="none" xmlns="http://www.w3.org/2000/svg">
<path d="M22.4335 3.63525L23.6026 6.7535H32.4601L33.6289 3.63525C33.8685 2.99677 34.2278 2.42391 34.6757 1.93819C32.6784 0.652293 30.5883 0 28.4295 0C25.6877 0 23.2595 1.02262 21.4956 2.06495C21.8917 2.52324 22.2143 3.0506 22.4335 3.63525Z" fill="#4233CA"/>
<path d="M45.7013 19.1944L46.349 16.6037H44.5802C42.4921 16.6037 40.0808 18.3416 39.4199 20.3228L38.3604 23.5022L43.8633 21.3008C44.6649 20.9798 45.4921 20.0321 45.7013 19.1944Z" fill="#4233CA"/>
<path d="M17.7023 23.5022L16.6425 20.3226C15.9821 18.3416 13.5707 16.6037 11.4826 16.6037H9.71387L10.3615 19.1944C10.5707 20.0321 11.3979 20.9798 12.1997 21.3008L17.7023 23.5022Z" fill="#4233CA"/>
<path d="M20.0467 19.1879L21.9415 25.1983L26.5735 27.0514C26.9745 27.2121 27.5027 27.2923 28.0313 27.2923C28.5599 27.2923 29.088 27.2121 29.489 27.0514L33.7165 25.3604L36.0154 19.1881C37.1699 15.7266 40.9319 13.0152 44.5802 13.0152H47.2458L48.398 8.40649C48.6073 7.56873 48.1035 6.6755 47.2781 6.42158L39.0408 3.88655C38.8854 3.83881 38.7268 3.81586 38.5691 3.81586C37.8898 3.81586 37.2353 4.23839 36.9893 4.89475L35.4982 8.87169C35.1951 9.6802 34.2408 10.3418 33.3772 10.3418H22.6856C21.822 10.3418 20.8677 9.6802 20.5646 8.87169L19.0735 4.89475C18.8275 4.23839 18.1728 3.81586 17.4934 3.81586C17.336 3.81586 17.1771 3.83861 17.0219 3.88655L8.78448 6.42158C7.95911 6.6753 7.45532 7.56873 7.66456 8.40649L8.81678 13.0152H11.4824C15.1309 13.0152 18.8929 15.7268 20.0467 19.1879Z" fill="#4233CA"/>
<path d="M28.0316 36.1394C25.5675 36.1394 23.5513 38.3602 23.5513 41.0738V55.3992C23.5513 58.113 25.5675 60.3336 28.0316 60.3336C30.4957 60.3336 32.5119 58.113 32.5119 55.3992V41.0738C32.5119 38.3602 30.4957 36.1394 28.0316 36.1394Z" fill="#4233CA"/>
<path d="M5.53362 4.32611H2.24291C1.00414 4.32611 0 5.33025 0 6.56902C0 7.80758 1.00414 8.81192 2.24291 8.81192H4.08988C3.82742 7.13518 4.39805 5.48179 5.53362 4.32611Z" fill="#4233CA"/>
<path d="M53.8199 4.32611H50.5288C51.6648 5.482 52.2356 7.13538 51.9729 8.81192H53.8199C55.0587 8.81192 56.0628 7.80758 56.0628 6.56902C56.0628 5.33025 55.0587 4.32611 53.8199 4.32611Z" fill="#4233CA"/>
<path d="M30.8226 30.3831C29.7951 30.7942 28.7377 30.8806 28.0316 30.8806C27.3255 30.8806 26.2679 30.7942 25.241 30.3833L11.4517 24.8665V40.6136C11.4517 44.3053 13.8577 48.8013 16.9292 50.8483L18.7244 52.0455C19.101 52.2963 19.5185 52.5493 19.9628 52.7981V41.0739C19.9628 36.3744 23.5826 32.551 28.0318 32.551C32.4811 32.551 36.1009 36.3744 36.1009 41.0739V52.7981C36.5449 52.5493 36.9628 52.2961 37.3394 52.0453L39.1342 50.8485C42.2059 48.8013 44.612 44.3053 44.612 40.6136V24.8665L30.8226 30.3831Z" fill="#4233CA"/>
</svg>
