<svg width="42" height="42" viewBox="0 0 42 42" fill="none" xmlns="http://www.w3.org/2000/svg">
<path d="M10.1971 10.1991C9.59513 10.8099 9.19963 11.6674 8.97913 13.2966C8.75338 14.9854 8.75163 17.2219 8.75163 20.4401V21.5601C8.75163 24.7731 8.75338 27.0079 8.97913 28.6949C9.19788 30.3259 9.59513 31.1886 10.1989 31.8046C10.8114 32.4049 11.6689 32.8021 13.2964 33.0209C14.9851 33.2466 17.2216 33.2501 20.4399 33.2501H21.5599C24.7729 33.2501 27.0076 33.2466 28.6964 33.0209C30.3256 32.8021 31.1884 32.4049 31.8044 31.8011C32.4046 31.1904 32.8019 30.3329 33.0206 28.7036C33.2481 27.0149 33.2499 24.7784 33.2499 21.5601V20.4401C33.2499 17.2271 33.2464 14.9924 33.0224 13.3054C32.8019 11.6744 32.4046 10.8116 31.8009 10.1956C31.1901 9.59537 30.3326 9.19812 28.7034 8.97937C27.0146 8.75362 24.7781 8.75012 21.5599 8.75012H20.4399C17.2269 8.75012 14.9921 8.75362 13.3051 8.97937C11.6741 9.19812 10.8131 9.59537 10.1971 10.1991ZM20.4399 5.25012H21.5599C24.0886 5.25012 26.6559 5.17487 29.1671 5.51087C31.1901 5.78212 32.9034 6.36137 34.2719 7.71587L34.2859 7.73162C35.6386 9.10362 36.2196 10.8169 36.4909 12.8416C36.8251 15.3494 36.7499 17.9149 36.7499 20.4401V21.5601C36.7499 24.0871 36.8269 26.6544 36.4891 29.1674C36.2196 31.1904 35.6386 32.9036 34.2841 34.2721L34.2684 34.2861C32.8981 35.6389 31.1849 36.2181 29.1584 36.4911C26.6506 36.8254 24.0851 36.7501 21.5599 36.7501H20.4399C17.9129 36.7501 15.3456 36.8254 12.8344 36.4894C10.8096 36.2181 9.09638 35.6389 7.72963 34.2844L7.71388 34.2686C6.36288 32.8966 5.78188 31.1834 5.51063 29.1586C5.17463 26.6526 5.24988 24.0871 5.24988 21.5601V20.4401C5.24988 17.9131 5.17463 15.3459 5.51238 12.8329C5.78188 10.8099 6.36288 9.09662 7.71738 7.72812L7.73138 7.71412C9.10338 6.36137 10.8166 5.78212 12.8414 5.50912C15.3509 5.17662 17.9164 5.25012 20.4399 5.25012ZM10.5629 14.8366C10.7309 23.0266 14.8259 27.9406 22.0079 27.9406H22.4279V23.2576C25.0634 23.5201 27.0584 25.4521 27.8564 27.9406H31.5839C31.2018 26.5265 30.5241 25.2094 29.5956 24.0764C28.6671 22.9434 27.5089 22.0201 26.1974 21.3676C27.3724 20.6518 28.3872 19.7015 29.1784 18.576C29.9697 17.4505 30.5205 16.174 30.7964 14.8261H27.4154C26.6804 17.4301 24.4964 19.7926 22.4279 20.0131V14.8366H19.0364V23.9086C16.9364 23.3836 14.2904 20.8426 14.1749 14.8366H10.5629Z" fill="white"/>
</svg>
